<?xml version="1.0" encoding="UTF-8"?>
<svg version="1.1" xmlns="http://www.w3.org/2000/svg" width="259" height="194">
<path d="M0 0 C85.47 0 170.94 0 259 0 C259 64.02 259 128.04 259 194 C173.53 194 88.06 194 0 194 C0 129.98 0 65.96 0 0 Z " fill="#FEFEFE" transform="translate(0,0)"/>
<path d="M0 0 C3.52503883 1.26566676 6.58743777 3.11132549 9.7578125 5.0703125 C18.62381052 10.42543918 27.66742569 15.44039863 36.75048828 20.41455078 C43.37349281 24.06224369 49.86473419 27.86362006 56.27832031 31.86865234 C59.40481474 33.95834705 59.40481474 33.95834705 62.2071228 34.89555359 C65.37367255 36.25316265 67.30640711 37.38293634 69.6328125 39.9453125 C71.16290152 45.89247003 70.99348921 51.7483153 70.890625 57.85546875 C70.89228327 59.62854087 70.89720543 61.40161268 70.90524292 63.17466736 C70.91095215 66.88504938 70.88163654 70.59301202 70.82666016 74.30297852 C70.75843077 79.05449334 70.77054534 83.80169172 70.80798531 88.55341434 C70.82914046 92.21264021 70.81123994 95.87086416 70.78121567 99.52999687 C70.77086454 101.28142762 70.77180086 103.03296327 70.78430557 104.78437996 C70.84518543 118.43288588 70.84518543 118.43288588 67.9393158 122.05793762 C65.86218824 123.38156801 63.96961884 124.19024078 61.6328125 124.9453125 C60.80692627 125.43330322 59.98104004 125.92129395 59.13012695 126.42407227 C58.07378052 127.02433228 58.07378052 127.02433228 56.99609375 127.63671875 C56.18253418 128.10021729 55.36897461 128.56371582 54.53076172 129.04125977 C53.67756348 129.52522217 52.82436523 130.00918457 51.9453125 130.5078125 C50.07941315 131.57028804 48.21352814 132.63278875 46.34765625 133.6953125 C45.40003418 134.23414063 44.45241211 134.77296875 43.47607422 135.328125 C39.85663336 137.38678688 36.23942551 139.44932975 32.6237793 141.51464844 C30.88548002 142.50684987 29.14606455 143.49709842 27.40551758 144.48535156 C22.99167633 146.99709778 18.60998008 149.54933481 14.265625 152.1796875 C13.40275879 152.696521 12.53989258 153.21335449 11.65087891 153.74584961 C10.01299231 154.72931206 8.38198597 155.72435674 6.75927734 156.73266602 C6.02660645 157.17022217 5.29393555 157.60777832 4.5390625 158.05859375 C3.90291016 158.44829346 3.26675781 158.83799316 2.61132812 159.23950195 C-0.10543711 160.20867376 -1.62655974 159.78730004 -4.3671875 158.9453125 C-6.8046875 157.73706055 -6.8046875 157.73706055 -9.3671875 156.20703125 C-10.80505615 155.35709595 -10.80505615 155.35709595 -12.27197266 154.48999023 C-13.29339355 153.87712158 -14.31481445 153.26425293 -15.3671875 152.6328125 C-17.54114997 151.3454812 -19.71563859 150.05903806 -21.890625 148.7734375 C-22.98084961 148.12697266 -24.07107422 147.48050781 -25.19433594 146.81445312 C-28.87052869 144.64879202 -32.56758019 142.52390474 -36.28456116 140.42910767 C-37.98776975 139.45642426 -39.68124473 138.46628643 -41.35978699 137.45162964 C-45.85896309 134.7616075 -50.13498611 132.5937428 -55.1159668 130.93896484 C-61.68059043 128.46895242 -67.18124193 125.74164323 -71.3671875 119.9453125 C-75.75264458 108.47534499 -74.08914647 94.44134841 -73.63555908 82.434021 C-73.52760821 78.69484734 -73.55017136 74.9612098 -73.5747633 71.22091961 C-73.5868067 67.60342527 -73.5326958 63.98932758 -73.45723915 60.3726902 C-73.42611444 58.65184101 -73.4114532 56.93060696 -73.414114 55.20947838 C-73.3930331 49.82891986 -73.1406606 45.0559258 -71.3671875 39.9453125 C-67.41719258 36.08198528 -63.44522826 34.1451876 -58.3671875 31.9453125 C-56.41421294 30.86041171 -54.47062858 29.75817459 -52.54296875 28.62890625 C-50.58981739 27.54457391 -48.63535327 26.46260333 -46.6796875 25.3828125 C-37.44750096 20.24997127 -28.26263855 15.04305985 -19.1171875 9.7578125 C-18.01673096 9.12222412 -16.91627441 8.48663574 -15.7824707 7.83178711 C-10.18982976 4.61268045 -10.18982976 4.61268045 -4.68408203 1.24926758 C-2.3671875 -0.0546875 -2.3671875 -0.0546875 0 0 Z " fill="#78CAE7" transform="translate(130.3671875,17.0546875)"/>
<path d="M0 0 C2.2199707 1.12329102 2.2199707 1.12329102 4.42578125 2.50390625 C5.22177734 2.99697266 6.01777344 3.49003906 6.83789062 3.99804688 C7.65451172 4.51431641 8.47113281 5.03058594 9.3125 5.5625 C10.14845703 6.08263672 10.98441406 6.60277344 11.84570312 7.13867188 C13.90144205 8.41910355 15.95257223 9.7063358 18 11 C14.60223877 13.84326145 11.20373556 16.14317462 7.32421875 18.27734375 C6.24849609 18.87353516 5.17277344 19.46972656 4.06445312 20.08398438 C2.95005859 20.69564453 1.83566406 21.30730469 0.6875 21.9375 C-1.51798503 23.15303032 -3.72243552 24.37043988 -5.92578125 25.58984375 C-6.97000244 26.16629639 -8.01422363 26.74274902 -9.09008789 27.33666992 C-11.65539216 28.80301928 -14.11518759 30.35459407 -16.578125 31.984375 C-20 34 -20 34 -23.4375 33.3125 C-24.613125 32.879375 -25.78875 32.44625 -27 32 C-32.56308495 31.36586596 -36.35814693 31.62410686 -41 35 C-41.66 35 -42.32 35 -43 35 C-43.28875 35.5775 -43.5775 36.155 -43.875 36.75 C-45 39 -45 39 -46.125 40.8125 C-47.9332266 45.3330665 -47.2801239 49.17363448 -45.75 53.6875 C-43.63136813 57.69776747 -41.74396615 60.00344792 -37.8125 62.25 C-33.29784946 63.45390681 -28.48732638 64.14282564 -24.12109375 62.13671875 C-22.27015394 60.91019237 -20.5727352 59.5727352 -19 58 C-9.77106788 57.01819871 -2.19331325 61.58017734 5.28515625 66.53515625 C7 68 7 68 8 71 C8.66 71 9.32 71 10 71 C9.96050617 72.87747595 9.8400582 74.75331581 9.6875 76.625 C9.62949219 77.66914062 9.57148438 78.71328125 9.51171875 79.7890625 C7.02284401 85.07550962 2.08671497 86.51823686 -3 89 C-5.07119049 90.13242352 -7.13496837 91.27850202 -9.19140625 92.4375 C-10.76245117 93.31535156 -10.76245117 93.31535156 -12.36523438 94.2109375 C-13.94788086 95.09652344 -13.94788086 95.09652344 -15.5625 96 C-17.15094727 96.88558594 -17.15094727 96.88558594 -18.77148438 97.7890625 C-20.3405957 98.66691406 -20.3405957 98.66691406 -21.94140625 99.5625 C-22.96121582 100.12936523 -23.98102539 100.69623047 -25.03173828 101.28027344 C-26.98679157 102.41297581 -28.90964823 103.60346309 -30.79248047 104.85253906 C-37.24619085 109.11959472 -37.24619085 109.11959472 -41.25 108.484375 C-42.1575 107.91203125 -43.065 107.3396875 -44 106.75 C-45.49466797 105.85474609 -45.49466797 105.85474609 -47.01953125 104.94140625 C-48.00308594 104.30074219 -48.98664063 103.66007812 -50 103 C-51.8944408 101.89344584 -53.79016795 100.78908937 -55.6875 99.6875 C-59.82926829 97.17073171 -59.82926829 97.17073171 -61 96 C-61.09409479 93.97505769 -61.11743122 91.9468013 -61.11352539 89.91967773 C-61.11344986 88.61840439 -61.11337433 87.31713104 -61.11329651 85.97642517 C-61.10818909 84.54548098 -61.10297308 83.11453718 -61.09765625 81.68359375 C-61.09579203 80.2277074 -61.09436815 78.77182043 -61.09336853 77.31593323 C-61.08954365 73.47720621 -61.07971364 69.63851681 -61.06866455 65.79980469 C-61.05844978 61.88542184 -61.05387077 57.97103294 -61.04882812 54.05664062 C-61.03809134 46.37107657 -61.02101529 38.68554355 -61 31 C-60.45960083 30.70474426 -59.91920166 30.40948853 -59.36242676 30.10528564 C-49.00230719 24.43982743 -38.67331616 18.74600478 -28.5 12.75 C-22.71875 9.359375 -22.71875 9.359375 -19.8984375 7.71679688 C-17.84545672 6.50077928 -15.81052681 5.25404692 -13.7890625 3.98632812 C-12.73460937 3.33599609 -11.68015625 2.68566406 -10.59375 2.015625 C-9.64177734 1.41524414 -8.68980469 0.81486328 -7.70898438 0.19628906 C-4.50117069 -1.22028331 -3.27341394 -1.13965251 0 0 Z " fill="#FCFDFD" transform="translate(133,33)"/>
<path d="M0 0 C1.20273702 0.85290689 2.39655221 1.71841439 3.5859375 2.58984375 C4.15910706 2.84694626 4.73227661 3.10404877 5.32281494 3.36894226 C7.6037785 4.56400817 8.96696544 5.56986657 10.5859375 7.58984375 C11.77667927 12.25281326 11.81717082 16.93823205 11.8671875 21.7265625 C11.89733911 23.13036818 11.92806968 24.53416153 11.95935059 25.9379425 C12.01472916 28.87942271 12.03974467 31.8195067 12.04785156 34.76147461 C12.06069586 37.76728367 12.12999856 40.76305663 12.25292969 43.76635742 C13.21724753 67.7297722 13.21724753 67.7297722 9.05233765 73.83959961 C5.17605081 77.3828193 0.73081582 79.16304971 -4.20147705 80.80032349 C-7.521404 81.98497812 -10.26808344 83.71719119 -13.26953125 85.56640625 C-16.50268736 87.43421431 -19.74000336 89.29346929 -22.98681641 91.13745117 C-30.00538121 95.13391106 -30.00538121 95.13391106 -36.76953125 99.5390625 C-39.8904285 101.67060957 -42.75162658 103.5041414 -46.4140625 104.58984375 C-51.17108606 103.61509168 -54.52212236 101.41437415 -58.4140625 98.58984375 C-60.16398162 97.46471794 -61.9139738 96.33970576 -63.6640625 95.21484375 C-64.91905978 94.34702648 -66.17118102 93.47492602 -67.4140625 92.58984375 C-63.89951066 88.53744493 -59.76306621 86.38413107 -55.1015625 83.90234375 C-50.34792742 81.33394881 -45.62132239 78.76201489 -41.03515625 75.90234375 C-40.3594458 75.48170654 -39.68373535 75.06106934 -38.98754883 74.62768555 C-37.71401813 73.82680213 -36.44658003 73.01612543 -35.1862793 72.19458008 C-30.94976869 69.54191214 -30.94976869 69.54191214 -28.1875 69.7890625 C-27.60226563 70.05332031 -27.01703125 70.31757812 -26.4140625 70.58984375 C-21.15992214 72.34122387 -15.66581675 72.57275026 -10.6015625 70.08984375 C-6.66065427 67.49617624 -4.82236981 64.01476199 -3.4140625 59.58984375 C-2.69279658 54.54098234 -3.6007701 50.78846657 -6.0234375 46.38671875 C-8.50371424 43.18186679 -11.58948663 41.74901647 -15.4140625 40.58984375 C-16.8061435 40.42833159 -18.2028622 40.30209727 -19.6015625 40.21484375 C-23.83173791 39.52137237 -24.54122459 38.70096607 -26.95703125 35.33984375 C-33.95396244 26.93602291 -45.18652817 23.25789618 -55.4140625 20.58984375 C-53.09467559 18.03682586 -50.69744722 16.4725483 -47.6875 14.8046875 C-46.74656494 14.27770264 -45.80562988 13.75071777 -44.83618164 13.20776367 C-42.77762025 12.07251184 -40.71684756 10.94126193 -38.65405273 9.8137207 C-33.81941449 7.1506517 -29.13491533 4.49141 -24.67578125 1.23046875 C-15.13718022 -5.60176075 -10.09867508 -6.57845136 0 0 Z " fill="#FCFDFE" transform="translate(176.4140625,57.41015625)"/>
<path d="M0 0 C0.72155273 0.40734375 1.44310547 0.8146875 2.18652344 1.234375 C2.97800781 1.6778125 3.76949219 2.12125 4.58496094 2.578125 C5.39707031 3.0421875 6.20917969 3.50625 7.04589844 3.984375 C7.87347656 4.4484375 8.70105469 4.9125 9.55371094 5.390625 C15.62719543 8.81567199 15.62719543 8.81567199 16.79589844 9.984375 C16.93342144 12.45200221 17.00629123 14.89254026 17.03637695 17.36230469 C17.04937332 18.1347049 17.06236969 18.9071051 17.07575989 19.70291138 C17.20257005 27.78961342 17.25924006 35.87737072 17.31079102 43.96484375 C17.33754763 47.80462097 17.38628641 51.64315873 17.4543457 55.48242188 C17.53623541 60.11323575 17.57896544 64.74286814 17.5938549 69.37436676 C17.60611526 71.13993431 17.63217774 72.90546206 17.67230415 74.67061615 C17.97077895 88.49333914 17.97077895 88.49333914 15.12245178 92.10813904 C13.03755771 93.43639141 11.14442817 94.23676354 8.79589844 94.984375 C7.97001221 95.47236572 7.14412598 95.96035645 6.29321289 96.46313477 C5.58898193 96.86330811 4.88475098 97.26348145 4.15917969 97.67578125 C3.34562012 98.13927979 2.53206055 98.60277832 1.69384766 99.08032227 C0.41405029 99.80626587 0.41405029 99.80626587 -0.89160156 100.546875 C-2.75750091 101.60935054 -4.62338592 102.67185125 -6.48925781 103.734375 C-7.43687988 104.27320313 -8.38450195 104.81203125 -9.36083984 105.3671875 C-12.9802807 107.42584938 -16.59748855 109.48839225 -20.21313477 111.55371094 C-21.95143404 112.54591237 -23.69084951 113.53616092 -25.43139648 114.52441406 C-29.84523774 117.03616028 -34.22693398 119.58839731 -38.57128906 122.21875 C-39.43415527 122.7355835 -40.29702148 123.25241699 -41.18603516 123.78491211 C-42.82392175 124.76837456 -44.45492809 125.76341924 -46.07763672 126.77172852 C-47.17664307 127.42806274 -47.17664307 127.42806274 -48.29785156 128.09765625 C-48.93400391 128.48735596 -49.57015625 128.87705566 -50.22558594 129.27856445 C-52.95610268 130.25264194 -54.44748403 129.83917221 -57.20410156 128.984375 C-59.0826234 128.04691393 -60.9237447 127.0325029 -62.73144531 125.96484375 C-63.77107422 125.35447266 -64.81070313 124.74410156 -65.88183594 124.11523438 C-66.95755859 123.47392578 -68.03328125 122.83261719 -69.14160156 122.171875 C-70.21345703 121.54216797 -71.2853125 120.91246094 -72.38964844 120.26367188 C-83.75914016 113.55461577 -83.75914016 113.55461577 -87.20410156 110.984375 C-87.20410156 110.324375 -87.20410156 109.664375 -87.20410156 108.984375 C-85.19238281 107.44140625 -85.19238281 107.44140625 -82.51660156 105.796875 C-81.21142578 104.97123047 -81.21142578 104.97123047 -79.87988281 104.12890625 C-76.55482593 102.70665564 -75.58448829 102.7142875 -72.20410156 103.984375 C-70.85425174 104.79148909 -69.52119698 105.62695701 -68.20019531 106.48046875 C-67.45833984 106.95548828 -66.71648437 107.43050781 -65.95214844 107.91992188 C-64.41818267 108.91706446 -62.90434089 109.94590515 -61.41308594 111.00585938 C-58.93269454 112.5451924 -57.08649414 113.47378762 -54.20410156 113.984375 C-49.76119167 112.7098846 -46.10400936 110.4229488 -42.20410156 107.984375 C-40.31117001 106.90604117 -38.41666356 105.83046674 -36.52050781 104.7578125 C-34.60025963 103.62886822 -32.68228853 102.49604194 -30.76660156 101.359375 C-19.64211789 94.7897363 -8.42995887 88.37890463 2.79589844 81.984375 C3.1915557 73.81358023 3.49263739 65.64683787 3.67670536 57.46880531 C3.76510854 53.66991525 3.88466229 49.87761357 4.07836914 46.08251953 C5.61153955 30.137051 5.61153955 30.137051 1.12078857 15.62780762 C-2.84742913 12.1093298 -7.25493639 10.08635274 -12.31983948 8.61166382 C-14.20410156 7.984375 -14.20410156 7.984375 -17.20410156 5.984375 C-16.0053532 2.38812992 -15.16769374 2.04335073 -11.95410156 0.234375 C-10.80167969 -0.43851563 -10.80167969 -0.43851563 -9.62597656 -1.125 C-6.03883297 -2.44414313 -3.41395248 -1.57311058 0 0 Z " fill="#2674BA" transform="translate(183.2041015625,47.015625)"/>
<path d="M0 0 C3.83307718 1.38928125 7.1522741 3.41116527 10.62109375 5.53515625 C12.12842701 6.44090219 13.63624794 7.34583701 15.14453125 8.25 C15.89959961 8.70487793 16.65466797 9.15975586 17.43261719 9.62841797 C20.84364927 11.66541825 24.29169649 13.63537108 27.74609375 15.59765625 C28.89207031 16.24992187 30.03804688 16.9021875 31.21875 17.57421875 C32.03214844 18.03570312 32.84554687 18.4971875 33.68359375 18.97265625 C30.19867756 22.59483391 27.2229363 24.82244136 22.68359375 26.97265625 C16.77775184 26.77263665 11.72681898 22.48603796 6.921875 19.390625 C6.19355469 18.94074219 5.46523437 18.49085937 4.71484375 18.02734375 C4.06064453 17.60952637 3.40644531 17.19170898 2.73242188 16.76123047 C-0.03458181 15.69623739 -1.50527366 16.09833291 -4.31640625 16.97265625 C-6.72790972 18.12014506 -6.72790972 18.12014506 -9.140625 19.60546875 C-10.07487305 20.15759033 -11.00912109 20.70971191 -11.97167969 21.27856445 C-12.97231445 21.87886475 -13.97294922 22.47916504 -15.00390625 23.09765625 C-17.14810297 24.36514943 -19.2926472 25.63205485 -21.4375 26.8984375 C-23.11561768 27.89351318 -23.11561768 27.89351318 -24.82763672 28.90869141 C-30.15007997 32.06147387 -35.49210548 35.18037908 -40.84341431 38.28387451 C-42.54346871 39.27182657 -44.23990273 40.26600002 -45.9362793 41.26025391 C-46.97437744 41.86272949 -48.01247559 42.46520508 -49.08203125 43.0859375 C-49.99758789 43.62001221 -50.91314453 44.15408691 -51.85644531 44.7043457 C-54.06914118 45.84517093 -55.91303702 46.4249679 -58.31640625 46.97265625 C-58.62755413 55.25808426 -58.83349253 63.53696966 -58.90968609 71.82756519 C-58.94829591 75.67907672 -59.02142615 79.5231234 -59.17700195 83.37182617 C-60.54597206 99.7340067 -60.54597206 99.7340067 -55.36871338 114.41986084 C-50.75186072 118.15755926 -45.71330753 120.38159208 -40.0337677 122.03544617 C-39.46703842 122.34472549 -38.90030914 122.65400482 -38.31640625 122.97265625 C-38.31640625 124.29265625 -38.31640625 125.61265625 -38.31640625 126.97265625 C-39.70121953 127.84457572 -41.09985871 128.69456009 -42.50390625 129.53515625 C-43.28121094 130.01082031 -44.05851562 130.48648438 -44.859375 130.9765625 C-47.99786894 132.24892491 -49.02337511 131.81259571 -52.31640625 130.97265625 C-53.02657394 130.8175206 -53.73674164 130.66238495 -54.46842957 130.50254822 C-61.36828462 128.73369454 -67.24176798 125.99911054 -71.31640625 119.97265625 C-74.79027891 107.98139514 -73.75344166 94.94545855 -73.37878418 82.59869385 C-73.29563386 78.84822389 -73.33140088 75.10279632 -73.36854553 71.3518877 C-73.39228467 67.72605187 -73.35114867 64.1032165 -73.28964233 60.477911 C-73.26600965 58.75140952 -73.25972126 57.02457475 -73.27163696 55.29795265 C-73.28235862 49.9012865 -73.06404862 45.10943907 -71.31640625 39.97265625 C-67.37017509 36.09761806 -63.40170259 34.16947346 -58.31640625 31.97265625 C-56.36329929 30.88799382 -54.41968492 29.78579553 -52.4921875 28.65625 C-50.53903614 27.57191766 -48.58457202 26.48994708 -46.62890625 25.41015625 C-37.39671971 20.27731502 -28.2118573 15.0704036 -19.06640625 9.78515625 C-17.96594971 9.14956787 -16.86549316 8.51397949 -15.73168945 7.85913086 C-10.13858619 4.63908273 -10.13858619 4.63908273 -4.63012695 1.27832031 C-2.31640625 -0.02734375 -2.31640625 -0.02734375 0 0 Z " fill="#2675BA" transform="translate(130.31640625,17.02734375)"/>
</svg>
