<?xml version="1.0" encoding="UTF-8"?>
<svg version="1.1" xmlns="http://www.w3.org/2000/svg" width="225" height="225">
<path d="M0 0 C74.25 0 148.5 0 225 0 C225 74.25 225 148.5 225 225 C150.75 225 76.5 225 0 225 C0 150.75 0 76.5 0 0 Z " fill="#FEFEFE" transform="translate(0,0)"/>
<path d="M0 0 C2.44502494 2.44502494 2.26273282 3.11929357 2.30639648 6.47802734 C2.32238388 7.40594086 2.33837128 8.33385437 2.35484314 9.28988647 C2.36020584 10.29508331 2.36556854 11.30028015 2.37109375 12.3359375 C2.38463646 13.88228378 2.38463646 13.88228378 2.39845276 15.45986938 C2.41297946 17.64378952 2.42184798 19.82775342 2.42553711 22.01171875 C2.43742855 25.35491269 2.48658779 28.69625871 2.53710938 32.0390625 C2.54657367 34.15884514 2.55380868 36.27863914 2.55859375 38.3984375 C2.57812607 39.39958588 2.59765839 40.40073425 2.61778259 41.43222046 C2.57256226 48.3831137 2.57256226 48.3831137 -0.41259766 51.59936523 C-4.6878427 53.91367745 -4.6878427 53.91367745 -6.8125 54.6875 C-7.71935547 55.03361328 -7.71935547 55.03361328 -8.64453125 55.38671875 C-12.02528056 56.26694701 -15.53351623 56.56668953 -19 57 C-19 90.66 -19 124.32 -19 159 C-12.73 159 -6.46 159 0 159 C0 157.02 0 155.04 0 153 C2.73355967 154.32423416 5.32006615 155.76584806 7.890625 157.3828125 C8.59960938 157.82753906 9.30859375 158.27226562 10.0390625 158.73046875 C10.76867187 159.19066406 11.49828125 159.65085938 12.25 160.125 C12.99507813 160.59292969 13.74015625 161.06085938 14.5078125 161.54296875 C16.33956503 162.69368508 18.1699207 163.84662444 20 165 C20 163.35 20 161.7 20 160 C21.134375 159.525625 22.26875 159.05125 23.4375 158.5625 C25.8626612 157.19559096 26.81711822 156.53875983 27.72265625 153.87109375 C28.09329739 150.70237304 28.36269481 148.03197693 27.29296875 144.98828125 C27 143 27 143 28.30078125 140.82421875 C33.67859406 135.11225058 33.67859406 135.11225058 37.62109375 134.77734375 C40.25 135.125 40.25 135.125 42.703125 135.6953125 C45.53342292 136.07076018 46.66938167 135.60732298 49 134 C50.76727858 130.9665533 50.76727858 130.9665533 52 128 C56.29 128 60.58 128 65 128 C65.4125 128.94875 65.825 129.8975 66.25 130.875 C68.08433657 134.15060101 68.58999046 134.82476457 72 136 C74.33643952 135.76496089 74.33643952 135.76496089 76.75 135.1875 C81.02276856 134.67324405 83.21461352 135.16822324 86.6875 137.75 C89.13345783 140.17639016 89.94600485 141.35205817 90.234375 144.8125 C89.9375 147.75 89.9375 147.75 89.40234375 150.546875 C88.78367893 153.12704192 88.78367893 153.12704192 90 156 C102.55388386 162.27694193 117.96918863 158.63076812 132 159 C132 131.94 132 104.88 132 77 C130.35 77 128.7 77 127 77 C127.94581814 72.39659522 130.29884398 69.11058508 132.875 65.25 C133.32230469 64.55261719 133.76960937 63.85523437 134.23046875 63.13671875 C135.40454919 61.36693968 136.69523917 59.67576311 138 58 C138.99 58 139.98 58 141 58 C142.3503418 59.52880859 142.3503418 59.52880859 143.69921875 61.6484375 C144.18583984 62.40640625 144.67246094 63.164375 145.17382812 63.9453125 C145.67333984 64.74710937 146.17285156 65.54890625 146.6875 66.375 C147.19861328 67.1690625 147.70972656 67.963125 148.23632812 68.78125 C152 74.71066631 152 74.71066631 152 77 C149.525 77.495 149.525 77.495 147 78 C146.99635437 79.14592117 146.99270874 80.29184235 146.98895264 81.4724884 C146.95205115 92.2586589 146.89433181 103.04454262 146.81609726 113.83049488 C146.77654616 119.37602251 146.74439519 124.92138953 146.72900391 130.46704102 C146.71388755 135.81644768 146.67953167 141.16541301 146.63169098 146.51462364 C146.61682523 148.55797177 146.60895603 150.60138289 146.60811615 152.64478493 C146.60576033 155.50170876 146.57879314 158.35739908 146.54589844 161.21411133 C146.55344398 162.4883345 146.55344398 162.4883345 146.56114197 163.78829956 C146.45969157 169.46302285 146.45969157 169.46302285 144.26469421 172.02705383 C141.72389224 173.11861998 139.98058169 173.36628283 137.21899414 173.35302734 C136.27443863 173.35668304 135.32988312 173.36033875 134.35670471 173.36410522 C133.34309372 173.35480988 132.32948273 173.34551453 131.28515625 173.3359375 C129.13346052 173.34844826 126.98176779 173.3614853 124.83007812 173.375 C121.44170541 173.37893339 118.0536279 173.37496174 114.6652832 173.36035156 C111.39229198 173.35178664 108.12053855 173.37345427 104.84765625 173.3984375 C103.83606949 173.38509369 102.82448273 173.37174988 101.78224182 173.35800171 C97.01392476 173.40811478 94.73757027 173.44921737 90.82348633 176.37207031 C88.7530678 178.82958564 88.7530678 178.82958564 88.9765625 181.6484375 C89.29753906 182.99808594 89.29753906 182.99808594 89.625 184.375 C90.34864341 189.37287362 90.34864341 189.37287362 88.73828125 192.26953125 C85.881504 195.31221592 83.98541272 196.84542546 79.8125 197.5 C77 197 77 197 74.9375 196.4375 C72.40831308 195.86639328 70.48811803 196.37797049 68 197 C67.71125 197.94875 67.4225 198.8975 67.125 199.875 C66 203 66 203 64 205 C61.91105461 205.24609566 61.91105461 205.24609566 59.27975464 205.24050903 C58.28413513 205.24325836 57.28851563 205.24600769 56.26272583 205.24884033 C55.16652924 205.24164978 54.07033264 205.23445923 52.94091797 205.22705078 C51.78970459 205.22734283 50.63849121 205.22763489 49.45239258 205.22793579 C45.63224858 205.22653807 41.81229759 205.21095592 37.9921875 205.1953125 C35.34945787 205.19158395 32.70672686 205.18873623 30.06399536 205.18673706 C23.80956866 205.18051494 17.55521167 205.16409429 11.3008157 205.14403808 C4.1812048 205.12170179 -2.93840938 205.11069137 -10.05804658 205.10064721 C-24.70540039 205.07972866 -39.35269922 205.04453851 -54 205 C-54.11673605 178.74888023 -54.20494059 152.49779929 -54.25906086 126.24647236 C-54.28485635 114.05786278 -54.32003279 101.86941435 -54.37719727 89.6809082 C-54.42699079 79.05897087 -54.45928122 68.43715022 -54.47044247 57.81509942 C-54.47696804 52.18932826 -54.49233328 46.56389098 -54.52865028 40.9382267 C-54.56254552 35.64490322 -54.57306594 30.35205168 -54.56553841 25.05862999 C-54.56691584 23.11434745 -54.5768867 21.1700494 -54.59602737 19.2258606 C-54.62086455 16.57331597 -54.6149398 13.92255876 -54.60127258 11.26997375 C-54.61583679 10.49856641 -54.630401 9.72715906 -54.64540654 8.93237573 C-54.58960171 4.93223297 -54.1614561 3.19870464 -51.60499859 0.05246258 C-49.16713053 -1.86831887 -47.45038675 -2.89812777 -44.5 -3.75 C-43.7678125 -3.97171875 -43.035625 -4.1934375 -42.28125 -4.421875 C-41.5284375 -4.61265625 -40.775625 -4.8034375 -40 -5 C-39.26265625 -5.18691406 -38.5253125 -5.37382812 -37.765625 -5.56640625 C-25.01509712 -7.56542969 -11.17011621 -6.85743345 0 0 Z " fill="#80D261" transform="translate(54,20)"/>
<path d="M0 0 C2 2 2 2 2.22705078 4.33837891 C2.21657715 5.29147949 2.20610352 6.24458008 2.1953125 7.2265625 C2.18886719 8.2578125 2.18242187 9.2890625 2.17578125 10.3515625 C2.15064453 11.97191406 2.15064453 11.97191406 2.125 13.625 C2.11597656 14.71296875 2.10695313 15.8009375 2.09765625 16.921875 C2.07403518 19.61467649 2.03816333 22.30736535 2 25 C6.62 24.67 11.24 24.34 16 24 C16 77.79 16 131.58 16 187 C-19.31 187 -54.62 187 -91 187 C-87 179 -87 179 -83.375 177.4375 C-80 177 -80 177 -78 178 C-75.01855519 178.47432077 -72.934337 178.50549496 -70.23828125 177.046875 C-68.28648586 175.46360042 -67.14603077 174.24913904 -66 172 C-65.98730243 169.10495343 -66.37707276 166.42425234 -66.82421875 163.56640625 C-67 161 -67 161 -65.1875 157.875 C-62.07279587 155.20525361 -60.42890149 154.87191789 -56.41430664 154.82641602 C-55.46314468 154.81292618 -54.51198273 154.79943634 -53.53199768 154.78553772 C-51.98668617 154.76988014 -51.98668617 154.76988014 -50.41015625 154.75390625 C-48.24283441 154.72097389 -46.0755168 154.68776214 -43.90820312 154.65429688 C-40.48025369 154.60681971 -37.05232217 154.56238364 -33.62426758 154.52319336 C-30.32354849 154.4835629 -27.02318229 154.43200124 -23.72265625 154.37890625 C-22.18038109 154.36628502 -22.18038109 154.36628502 -20.60694885 154.35340881 C-19.65263474 154.33676682 -18.69832062 154.32012482 -17.71508789 154.30297852 C-16.87506729 154.29267105 -16.03504669 154.28236359 -15.16957092 154.27174377 C-12.70694992 154.12746039 -12.70694992 154.12746039 -10 152 C-9.68938125 149.0471631 -9.57305747 146.30031083 -9.58349609 143.34350586 C-9.57491074 142.44749161 -9.56632538 141.55147736 -9.55747986 140.62831116 C-9.53231981 137.65707655 -9.52803241 134.68617533 -9.5234375 131.71484375 C-9.50913763 129.65742461 -9.49338247 127.60001511 -9.47622681 125.5426178 C-9.43428355 120.11951614 -9.40934519 114.6964742 -9.38873291 109.27325439 C-9.35297667 100.58798421 -9.29209912 91.90286131 -9.23024368 83.21774483 C-9.21107881 80.17478094 -9.19940151 77.13185639 -9.18881226 74.08885193 C-9.17860529 72.23493361 -9.16824781 70.38101611 -9.15771484 68.52709961 C-9.15667252 67.67356903 -9.15563019 66.82003845 -9.15455627 65.94064331 C-9.11342457 60.11342457 -9.11342457 60.11342457 -8 59 C-6.33382885 58.95936168 -4.66611905 58.957279 -3 59 C-4.59920371 56.39266788 -6.20408923 53.78914357 -7.8125 51.1875 C-8.26431641 50.44951172 -8.71613281 49.71152344 -9.18164062 48.95117188 C-9.62314453 48.23896484 -10.06464844 47.52675781 -10.51953125 46.79296875 C-10.92276611 46.1383667 -11.32600098 45.48376465 -11.74145508 44.80932617 C-13.83191985 41.80400427 -15.09481854 40.19470427 -18.7421875 39.41015625 C-20.82529968 39.17898794 -22.9086338 38.9498106 -24.9921875 38.72265625 C-28.69806647 37.83228273 -30.33381733 36.72531451 -33 34 C-33.6628418 30.671875 -33.6628418 30.671875 -33.69921875 26.75 C-33.70637405 26.05487305 -33.71352936 25.35974609 -33.72090149 24.64355469 C-33.72866617 23.17774739 -33.72369195 21.71182413 -33.70678711 20.24609375 C-33.68754801 18.0055912 -33.72694937 15.771287 -33.77148438 13.53125 C-33.77177474 12.10416298 -33.76863453 10.67707029 -33.76171875 9.25 C-33.76131592 7.95578125 -33.76091309 6.6615625 -33.76049805 5.328125 C-33 2 -33 2 -30.10766602 -0.40722656 C-21.22690019 -4.9588894 -8.89059688 -4.43512613 0 0 Z " fill="#FDFDFD" transform="translate(209,38)"/>
<path d="M0 0 C1.15947647 -0.005476 1.15947647 -0.005476 2.34237671 -0.01106262 C4.88863332 -0.01914548 7.43424898 -0.00557714 9.98046875 0.0090332 C11.75496419 0.00955208 13.52946021 0.0090333 15.30395508 0.00752258 C19.01945601 0.00761221 22.7347395 0.01802115 26.45019531 0.03613281 C31.20830914 0.05881956 35.9661054 0.05936297 40.72425842 0.05261517 C44.3874391 0.0492707 48.05054762 0.05591429 51.7137146 0.0657444 C53.46796287 0.06958844 55.22221918 0.07074792 56.97647095 0.06915855 C59.42978149 0.06878692 61.8826878 0.08143549 64.3359375 0.09765625 C65.05816498 0.09517883 65.78039246 0.09270142 66.52450562 0.09014893 C70.502167 0.13203628 73.63236052 0.50010436 77.16796875 2.37231445 C81.87684576 7.60440002 82.34470892 11.02369709 82.40625 17.88793945 C82.41432175 18.73652527 82.42239349 19.58511108 82.43070984 20.45941162 C82.44455316 22.25832068 82.45527421 24.05725603 82.46313477 25.85620117 C82.48031489 28.59776174 82.52419359 31.33810601 82.56835938 34.0793457 C82.57848936 35.82803476 82.5870045 37.57673407 82.59375 39.32543945 C82.61125809 40.14127502 82.62876617 40.9571106 82.64680481 41.79766846 C82.62666292 47.12580597 81.72479879 50.15925309 78.16796875 54.37231445 C74.41236511 56.87605022 71.45395502 56.66792144 67.10400391 56.6628418 C65.87181374 56.67291763 65.87181374 56.67291763 64.61473083 56.68319702 C61.89543633 56.70221606 59.17638815 56.70610322 56.45703125 56.70825195 C54.56757505 56.71467736 52.67811986 56.72140552 50.78866577 56.72842407 C46.82588392 56.74040674 42.86318932 56.7441039 38.90039062 56.74291992 C33.82371647 56.74271672 28.74760206 56.77001561 23.67106056 56.80446434 C19.76768426 56.82670807 15.86444317 56.83075823 11.96100998 56.82970047 C10.0895126 56.83206036 8.21801171 56.84090572 6.34657669 56.8563652 C3.72756077 56.8759735 1.10975834 56.87020775 -1.50927734 56.8581543 C-2.66746223 56.87501282 -2.66746223 56.87501282 -3.8490448 56.89221191 C-8.8106976 56.83421997 -11.33624191 55.89471569 -14.83203125 52.37231445 C-17.65055689 48.65015565 -17.15573006 44.13536689 -17.16796875 39.66137695 C-17.17462555 38.81562103 -17.18128235 37.96986511 -17.18814087 37.09848022 C-17.19825248 35.31152517 -17.20295835 33.52453246 -17.20263672 31.73754883 C-17.20700513 29.01360343 -17.24332564 26.29128533 -17.28125 23.56762695 C-17.28711958 21.82804914 -17.29108803 20.08846366 -17.29296875 18.34887695 C-17.3145253 17.13453476 -17.3145253 17.13453476 -17.33651733 15.8956604 C-17.29407464 10.60213288 -16.42916326 7.50936237 -12.83203125 3.37231445 C-8.68282612 0.21038104 -5.04849331 -0.05343103 0 0 Z " fill="#04C0FA" transform="translate(79.83203125,76.627685546875)"/>
<path d="M0 0 C1.98 1.65 3.96 3.3 6 5 C9.48516758 6.4715152 13.01822986 7.23835591 16.69921875 8.05078125 C17.90904419 8.31822144 17.90904419 8.31822144 19.14331055 8.59106445 C20.06237183 8.79348755 20.06237183 8.79348755 21 9 C21.00238835 9.57445264 21.00477671 10.14890528 21.00723743 10.74076557 C21.06634685 24.71180573 21.14206032 38.68267067 21.23571491 52.65352345 C21.28070042 59.40970616 21.32010858 66.16583583 21.34643555 72.92211914 C21.37184339 79.43852398 21.41272945 85.95472377 21.46318626 92.47098351 C21.4799111 94.96091477 21.49139025 97.45088681 21.49761391 99.94086647 C21.50719388 103.42022193 21.53518037 106.8989672 21.56762695 110.37817383 C21.56547432 111.93291916 21.56547432 111.93291916 21.5632782 113.51907349 C21.58208542 114.93883736 21.58208542 114.93883736 21.60127258 116.38728333 C21.60588155 117.21044446 21.61049051 118.03360559 21.61523914 118.88171101 C22.09445701 121.52003016 22.8709151 122.4086851 25 124 C27.98308058 124.49090198 27.98308058 124.49090198 31.3828125 124.4765625 C32.63191406 124.5075 33.88101563 124.5384375 35.16796875 124.5703125 C36.47378906 124.58835937 37.77960937 124.60640625 39.125 124.625 C41.71101765 124.67575599 44.29696593 124.73023248 46.8828125 124.7890625 C48.03152832 124.80662598 49.18024414 124.82418945 50.36376953 124.84228516 C53 125 53 125 54 126 C54.04063832 127.66617115 54.042721 129.33388095 54 131 C55.10859375 130.30132812 56.2171875 129.60265625 57.359375 128.8828125 C58.82285651 127.96344591 60.28640151 127.04418036 61.75 126.125 C62.47960938 125.66480469 63.20921875 125.20460938 63.9609375 124.73046875 C64.66992188 124.28574219 65.37890625 123.84101563 66.109375 123.3828125 C66.75874023 122.97434082 67.40810547 122.56586914 68.07714844 122.14501953 C70.00993204 120.99408567 71.97616502 119.98041811 74 119 C74.04125 119.7425 74.0825 120.485 74.125 121.25 C75.35033158 125.10104212 77.63073688 125.93718584 81 128 C83.39732876 131.59599314 82.99400012 132.23740843 82.25 136.3125 C81.81172713 140.31079557 81.81172713 140.31079557 82.91015625 144.08984375 C84.52107749 145.99692322 85.70078255 147.00888102 88 148 C90.61345434 147.99155588 93.02192597 147.62134018 95.59765625 147.19140625 C98 147 98 147 101.4375 148.5625 C104 151 104 151 107 157 C71.69 157 36.38 157 0 157 C0 105.19 0 53.38 0 0 Z " fill="#FEFEFE" transform="translate(0,68)"/>
<path d="M0 0 C2.44502494 2.44502494 2.26273282 3.11929357 2.30639648 6.47802734 C2.32238388 7.40594086 2.33837128 8.33385437 2.35484314 9.28988647 C2.36020584 10.29508331 2.36556854 11.30028015 2.37109375 12.3359375 C2.38463646 13.88228378 2.38463646 13.88228378 2.39845276 15.45986938 C2.41297946 17.64378952 2.42184798 19.82775342 2.42553711 22.01171875 C2.43742855 25.35491269 2.48658779 28.69625871 2.53710938 32.0390625 C2.54657367 34.15884514 2.55380868 36.27863914 2.55859375 38.3984375 C2.57812607 39.39958588 2.59765839 40.40073425 2.61778259 41.43222046 C2.57257704 48.3808422 2.57257704 48.3808422 -0.40380859 51.59936523 C-2.61663647 52.79317693 -4.6879918 53.87082024 -7.0625 54.6875 C-8.03896484 55.03361328 -8.03896484 55.03361328 -9.03515625 55.38671875 C-20.1819258 58.86592913 -36.33332554 58.83553389 -47.07421875 54.08203125 C-50.26730548 52.39157357 -51.97668024 51.03497965 -54 48 C-54.27415466 45.96450806 -54.27415466 45.96450806 -54.30639648 43.60791016 C-54.32238388 42.72334137 -54.33837128 41.83877258 -54.35484314 40.92739868 C-54.36020584 39.97424774 -54.36556854 39.0210968 -54.37109375 38.0390625 C-54.38012222 37.05634369 -54.3891507 36.07362488 -54.39845276 35.06112671 C-54.41296382 32.98153738 -54.42184412 30.9019023 -54.42553711 28.82226562 C-54.43742986 25.64374675 -54.48660454 22.46717134 -54.53710938 19.2890625 C-54.54657401 17.26823864 -54.55380885 15.24740286 -54.55859375 13.2265625 C-54.57812607 12.27746002 -54.59765839 11.32835754 -54.61778259 10.35049438 C-54.58621812 5.723776 -54.53037808 3.68057699 -51.60766602 -0.06982422 C-49.1837543 -1.86398638 -47.37477543 -2.91995921 -44.5 -3.75 C-43.7678125 -3.97171875 -43.035625 -4.1934375 -42.28125 -4.421875 C-41.5284375 -4.61265625 -40.775625 -4.8034375 -40 -5 C-39.26265625 -5.18691406 -38.5253125 -5.37382812 -37.765625 -5.56640625 C-25.01509712 -7.56542969 -11.17011621 -6.85743345 0 0 Z " fill="#5490D8" transform="translate(54,20)"/>
<path d="M0 0 C0.02312737 8.06652174 0.04091709 16.13302972 0.05181217 24.19957638 C0.05704014 27.94483037 0.06413622 31.69006176 0.07543945 35.43530273 C0.08627141 39.04681687 0.09227749 42.65830921 0.09487724 46.26983833 C0.09673094 47.65060329 0.10035049 49.031367 0.10573006 50.41212273 C0.11294447 52.33975952 0.11340809 54.26741807 0.11352539 56.19506836 C0.115746 57.29427109 0.11796661 58.39347382 0.12025452 59.52598572 C0 62 0 62 -1 63 C-5.33530918 63.14393457 -9.66157731 63.04212061 -14 63 C-14.33 55.41 -14.66 47.82 -15 40 C-24.11782149 35.44108926 -33.31647615 34.16884448 -43.25 37.4375 C-45.85449033 38.36523901 -45.85449033 38.36523901 -48 40 C-48.15740605 41.70563778 -48.25093392 43.41727244 -48.31640625 45.12890625 C-48.35830078 46.16337891 -48.40019531 47.19785156 -48.44335938 48.26367188 C-48.48267578 49.35228516 -48.52199219 50.44089844 -48.5625 51.5625 C-48.60568359 52.65498047 -48.64886719 53.74746094 -48.69335938 54.87304688 C-48.79981958 57.58186768 -48.90044807 60.29091651 -49 63 C-53.62 63 -58.24 63 -63 63 C-67.81269852 26.30502479 -67.81269852 26.30502479 -60.58740234 16.00048828 C-45.00579666 -2.12466037 -21.77068666 -2.08971939 0 0 Z " fill="#FC692F" transform="translate(225,0)"/>
<path d="M0 0 C4.62 0 9.24 0 14 0 C14 33.66 14 67.32 14 102 C20.27 102 26.54 102 33 102 C33 100.02 33 98.04 33 96 C36.90495346 97.82952479 40.53867697 100.08935036 44.1875 102.375 C44.82880859 102.76171875 45.47011719 103.1484375 46.13085938 103.546875 C50.84341064 106.51274676 50.84341064 106.51274676 51.6887207 109.14306641 C51.79144287 109.75585449 51.89416504 110.36864258 52 111 C49.21312902 112.84070559 46.41974873 114.67128178 43.625 116.5 C42.8309375 117.02464844 42.036875 117.54929687 41.21875 118.08984375 C40.45820312 118.58613281 39.69765625 119.08242187 38.9140625 119.59375 C38.2123291 120.05458984 37.5105957 120.51542969 36.78759766 120.99023438 C35 122 35 122 33 122 C32.67 120.35 32.34 118.7 32 117 C30.75911621 116.98598145 30.75911621 116.98598145 29.49316406 116.97167969 C25.74483585 116.91799681 21.99775838 116.8343429 18.25 116.75 C16.94804688 116.73582031 15.64609375 116.72164063 14.3046875 116.70703125 C13.05429687 116.67480469 11.80390625 116.64257812 10.515625 116.609375 C9.36352539 116.58842773 8.21142578 116.56748047 7.02441406 116.54589844 C3.15308228 115.84713368 2.25701043 115.23557753 0 112 C-0.59219115 108.4249112 -0.50444552 104.88052905 -0.45410156 101.26464844 C-0.45468567 100.17166443 -0.45526978 99.07868042 -0.45587158 97.95257568 C-0.45308362 94.33785303 -0.42195649 90.7239537 -0.390625 87.109375 C-0.38316518 84.60402883 -0.37747103 82.09867684 -0.37347412 79.59332275 C-0.35975921 73.67177281 -0.32823004 67.75048727 -0.28807616 61.82907319 C-0.23896038 54.42516391 -0.21749229 47.02121799 -0.1953125 39.6171875 C-0.15240591 26.41130362 -0.08412963 13.20568108 0 0 Z " fill="#0354A2" transform="translate(21,77)"/>
<path d="M0 0 C3.63571341 3.3188393 6.13932359 7.00064151 8.75 11.125 C9.36681641 12.07439453 9.36681641 12.07439453 9.99609375 13.04296875 C13 17.74343335 13 17.74343335 13 20 C11.35 20.33 9.7 20.66 8 21 C7.99635437 22.14592117 7.99270874 23.29184235 7.98895264 24.4724884 C7.95205115 35.2586589 7.89433181 46.04454262 7.81609726 56.83049488 C7.77654616 62.37602251 7.74439519 67.92138953 7.72900391 73.46704102 C7.71388755 78.81644768 7.67953167 84.16541301 7.63169098 89.51462364 C7.61682523 91.55797177 7.60895603 93.60138289 7.60811615 95.64478493 C7.60576033 98.50170876 7.57879314 101.35739908 7.54589844 104.21411133 C7.55344398 105.4883345 7.55344398 105.4883345 7.56114197 106.78829956 C7.45965865 112.46486443 7.45965865 112.46486443 5.25817871 115.02783203 C2.74817989 116.10841102 1.05088278 116.36305673 -1.67675781 116.34057617 C-3.05773651 116.34023628 -3.05773651 116.34023628 -4.46661377 116.33988953 C-5.45216248 116.32440567 -6.43771118 116.30892181 -7.453125 116.29296875 C-8.46848328 116.28872391 -9.48384155 116.28447906 -10.52996826 116.28010559 C-13.77024954 116.26332424 -17.00990697 116.22567241 -20.25 116.1875 C-22.44790768 116.17245249 -24.64582512 116.1587642 -26.84375 116.14648438 C-32.22940673 116.11342238 -37.61459762 116.06164319 -43 116 C-43 111.38 -43 106.76 -43 102 C-31.12 102 -19.24 102 -7 102 C-7 74.94 -7 47.88 -7 20 C-8.65 20 -10.3 20 -12 20 C-11.39235744 17.00265444 -10.46199224 14.88962107 -8.75 12.36328125 C-8.08484375 11.37424805 -8.08484375 11.37424805 -7.40625 10.36523438 C-6.9421875 9.68783203 -6.478125 9.01042969 -6 8.3125 C-5.5359375 7.62349609 -5.071875 6.93449219 -4.59375 6.22460938 C-1.18332067 1.18332067 -1.18332067 1.18332067 0 0 Z " fill="#0657A3" transform="translate(193,77)"/>
<path d="M0 0 C3.77512998 3.77512998 2.45359414 10.44870055 2.48046875 15.60302734 C2.49987579 17.86055182 2.56189021 20.11442569 2.625 22.37109375 C2.63806179 23.80727005 2.64856208 25.24347238 2.65625 26.6796875 C2.68428711 28.64010986 2.68428711 28.64010986 2.71289062 30.64013672 C2 34 2 34 -0.85083008 36.40136719 C-8.64937869 40.36019317 -17.10437005 40.47144337 -25.5625 38.8984375 C-28.75090362 37.72322463 -30.58968705 36.4159727 -33 34 C-33.6628418 30.671875 -33.6628418 30.671875 -33.69921875 26.75 C-33.70637405 26.05487305 -33.71352936 25.35974609 -33.72090149 24.64355469 C-33.72866617 23.17774739 -33.72369195 21.71182413 -33.70678711 20.24609375 C-33.68754801 18.0055912 -33.72694937 15.771287 -33.77148438 13.53125 C-33.77177474 12.10416298 -33.76863453 10.67707029 -33.76171875 9.25 C-33.76131592 7.95578125 -33.76091309 6.6615625 -33.76049805 5.328125 C-33 2 -33 2 -30.10766602 -0.40722656 C-21.22690019 -4.9588894 -8.89059688 -4.43512613 0 0 Z " fill="#81ADE3" transform="translate(209,38)"/>
<path d="M0 0 C2.67580406 1.63417404 4.50107098 3.22241468 6 6 C6.1308982 8.95998824 5.82846785 11.59364019 5.33203125 14.51171875 C4.79798354 17.12549679 4.79798354 17.12549679 6 20 C7.62948064 21.22445284 7.62948064 21.22445284 9.5625 22.1875 C10.696875 22.785625 11.83125 23.38375 13 24 C13.40946285 28.07513031 13.62852197 31.94123946 13 36 C11.34532382 37.80741552 9.76850293 38.70013477 7.62890625 39.8671875 C5.60251423 41.02314795 5.60251423 41.02314795 5 44.4375 C4.83375 47.95083333 4.83375 47.95083333 5.875 51 C6.02777609 54.66662617 5.35609824 55.23941592 2.9375 57.875 C0.34064847 60.223547 -0.65277266 60.94553297 -4.1875 61.5 C-7 61 -7 61 -9.0625 60.4375 C-11.59168692 59.86639328 -13.51188197 60.37797049 -16 61 C-16.28875 61.94875 -16.5775 62.8975 -16.875 63.875 C-18 67 -18 67 -20 69 C-22.49609375 69.3359375 -22.49609375 69.3359375 -25.4375 69.375 C-26.40558594 69.40335937 -27.37367187 69.43171875 -28.37109375 69.4609375 C-31 69 -31 69 -32.84765625 67.1640625 C-34 65 -34 65 -34 62 C-33.16597656 61.72027344 -32.33195312 61.44054687 -31.47265625 61.15234375 C-20.40034986 57.20791387 -13.07746017 52.87405392 -7.19140625 42.52734375 C-2.70936344 33.01953489 -2.28557607 21.81816946 -5.75 11.875 C-7.42645662 7.90539021 -9.40236226 4.43259273 -12 1 C-4.03448276 -1.65517241 -4.03448276 -1.65517241 0 0 Z " fill="#6ACA46" transform="translate(138,156)"/>
<path d="M0 0 C2 2 2 2 2.4375 4.375 C2 7 2 7 0.0625 9.125 C-11.35479559 16.11518098 -27.14248284 17.0952244 -40.03125 14.24609375 C-45.62034833 12.61166706 -49.56247056 10.83351001 -54 7 C-53.82612977 3.17485497 -53.51281528 1.48509553 -50.6875 -1.1875 C-36.29950558 -9.27863098 -13.98469809 -8.58533024 0 0 Z " fill="#B1CAEB" transform="translate(54,20)"/>
<path d="M0 0 C0.94359375 0.50660156 0.94359375 0.50660156 1.90625 1.0234375 C3.19015625 1.69246094 3.19015625 1.69246094 4.5 2.375 C5.75296875 3.03628906 5.75296875 3.03628906 7.03125 3.7109375 C13.94967721 6.71499142 20.36400932 7.36088993 27.8125 7.3125 C29.13254028 7.30621582 29.13254028 7.30621582 30.47924805 7.29980469 C40.10038542 7.13289744 47.8807057 5.2324341 56 0 C56.62051848 9.03199117 56.62051848 9.03199117 54.4375 12.4375 C45.85890421 17.93659986 37.73512392 18.22590641 27.875 18.3125 C26.25851563 18.35600586 26.25851563 18.35600586 24.609375 18.40039062 C16.38475895 18.46480027 8.15578372 17.59845218 1.71533203 12.02172852 C-0.47404946 9.44127475 -0.42531293 8.08094575 -0.25 4.75 C-0.21390625 3.85796875 -0.1778125 2.9659375 -0.140625 2.046875 C-0.09421875 1.37140625 -0.0478125 0.6959375 0 0 Z " fill="#81ADE2" transform="translate(0,27)"/>
<path d="M0 0 C0.55945312 0.26554687 1.11890625 0.53109375 1.6953125 0.8046875 C19.65412343 8.71580357 37.75705803 6.38669546 56 1 C56.23787606 3.85451268 56.4138339 6.19990309 56 9 C51.84657946 13.8023925 45.07174415 15.66847112 39 17 C26.36712366 17.8610036 12.78668993 18.41584933 2 11 C-0.67927341 6.98108988 -0.15601248 4.75838077 0 0 Z " fill="#82AEE3" transform="translate(0,60)"/>
<path d="M0 0 C9.04576659 -0.30663616 9.04576659 -0.30663616 13 2 C17.70887701 7.23208557 18.17674017 10.65138264 18.23828125 17.515625 C18.246353 18.36421082 18.25442474 19.21279663 18.26274109 20.08709717 C18.27658441 21.88600622 18.28730546 23.68494157 18.29516602 25.48388672 C18.31234614 28.22544728 18.35622484 30.96579156 18.40039062 33.70703125 C18.41052061 35.45572031 18.41903575 37.20441961 18.42578125 38.953125 C18.44328934 39.76896057 18.46079742 40.58479614 18.47883606 41.425354 C18.45869417 46.75349152 17.55683004 49.78693863 14 54 C10.57905758 56.28062828 9.31812778 56.21925007 5.3125 56.125 C4.31863281 56.10695312 3.32476562 56.08890625 2.30078125 56.0703125 C1.16189453 56.03550781 1.16189453 56.03550781 0 56 C0.78375 55.443125 1.5675 54.88625 2.375 54.3125 C6.2604685 50.88958727 6.90921369 48.27883611 7.2746582 43.13110352 C7.29449664 41.63047696 7.30256992 40.12966287 7.30078125 38.62890625 C7.30506638 37.82895737 7.3093515 37.02900848 7.31376648 36.20481873 C7.31949279 34.51798445 7.3200226 32.8311255 7.31567383 31.14428711 C7.31251448 28.57427538 7.33599104 26.00541645 7.36132812 23.43554688 C7.36360148 21.79166811 7.36430444 20.14778627 7.36328125 18.50390625 C7.37709587 17.35989098 7.37709587 17.35989098 7.39118958 16.19276428 C7.33985655 10.2246461 5.94988227 6.11701504 1.8125 1.625 C1.214375 1.08875 0.61625 0.5525 0 0 Z " fill="#10ABF1" transform="translate(144,77)"/>
<path d="M0 0 C0.83724609 -0.01224609 1.67449219 -0.02449219 2.53710938 -0.03710938 C3.73883789 -0.04000977 3.73883789 -0.04000977 4.96484375 -0.04296875 C5.70210693 -0.04707764 6.43937012 -0.05118652 7.19897461 -0.05541992 C9.0625 0.1875 9.0625 0.1875 11.0625 2.1875 C10.52678571 5.72321429 10.52678571 5.72321429 9.0625 7.1875 C7.04285801 7.25994053 5.02082876 7.27127188 3 7.25 C1.34291016 7.23646484 1.34291016 7.23646484 -0.34765625 7.22265625 C-1.20230469 7.21105469 -2.05695313 7.19945313 -2.9375 7.1875 C-2.9375 9.4975 -2.9375 11.8075 -2.9375 14.1875 C-2.15375 14.14625 -1.37 14.105 -0.5625 14.0625 C2.0625 14.1875 2.0625 14.1875 4.0625 16.1875 C3.52678571 19.72321429 3.52678571 19.72321429 2.0625 21.1875 C0.39632885 21.22813832 -1.27138095 21.230221 -2.9375 21.1875 C-2.9375 23.4975 -2.9375 25.8075 -2.9375 28.1875 C-2.09445313 28.16429688 -1.25140625 28.14109375 -0.3828125 28.1171875 C1.26074219 28.09011719 1.26074219 28.09011719 2.9375 28.0625 C4.57332031 28.02769531 4.57332031 28.02769531 6.2421875 27.9921875 C9.0625 28.1875 9.0625 28.1875 11.0625 30.1875 C10.52678571 33.72321429 10.52678571 33.72321429 9.0625 35.1875 C6.23833618 35.31413091 3.44955207 35.37270548 0.625 35.375 C-0.16455078 35.38724609 -0.95410156 35.39949219 -1.76757812 35.41210938 C-3.82557435 35.41737279 -5.88312009 35.30956285 -7.9375 35.1875 C-10.37827852 32.74672148 -10.17366181 31.43867641 -10.18974304 28.10765076 C-10.18255753 27.42114944 -10.17537201 26.73464813 -10.16796875 26.02734375 C-10.16751053 25.32227188 -10.16705231 24.61720001 -10.1665802 23.89076233 C-10.16355863 22.40038368 -10.1556751 20.91000816 -10.14331055 19.41967773 C-10.12504456 17.13058367 -10.12280091 14.84189373 -10.12304688 12.55273438 C-10.11813206 11.10676731 -10.1123039 9.66080301 -10.10546875 8.21484375 C-10.10435593 7.52631821 -10.1032431 6.83779266 -10.10209656 6.12840271 C-10.02542407 -1.4925524 -6.68461516 0.00512231 0 0 Z " fill="#EBF9FE" transform="translate(83.9375,87.8125)"/>
<path d="M0 0 C0.99 0.495 0.99 0.495 2 1 C2 1.66 2 2.32 2 3 C17.61253532 8.65671569 32.88259259 10.00195402 49 5 C51.76951349 3.52370518 53.78273361 2.21726639 56 0 C56 3.3 56 6.6 56 10 C40.44868845 16.30624051 23.35809951 18.61064008 7.13671875 13.01171875 C1.5703125 10.5703125 1.5703125 10.5703125 0 9 C-0.07179964 7.48071962 -0.08392007 5.95832518 -0.0625 4.4375 C-0.05347656 3.61121094 -0.04445312 2.78492188 -0.03515625 1.93359375 C-0.02355469 1.29550781 -0.01195312 0.65742187 0 0 Z " fill="#538FD8" transform="translate(0,51)"/>
<path d="M0 0 C0.66 0.66 1.32 1.32 2 2 C1.9375 4.4375 1.9375 4.4375 1 7 C-6.01310519 12.30721474 -14.61940046 11.51004698 -23 11 C-26.97590808 10.11133549 -30.06684049 8.93315951 -33 6 C-32.9375 3.5625 -32.9375 3.5625 -32 1 C-23.59175725 -5.53974436 -9.16736093 -4.57319149 0 0 Z " fill="#B2C8E9" transform="translate(209,38)"/>
<path d="M0 0 C0.63164063 0.26554687 1.26328125 0.53109375 1.9140625 0.8046875 C18.2313193 7.24694739 35.00415859 7.59904645 51.5234375 1.83984375 C54 1 54 1 56 1 C55.83009388 4.73793458 55.4952242 6.5047758 52.8125 9.1875 C40.99101281 15.93054401 25.24392342 15.28442384 12.4375 12.3125 C11.43710693 12.09001587 11.43710693 12.09001587 10.41650391 11.86303711 C5.71488991 10.63951768 2.94419117 8.85965945 0 5 C-0.3125 2.1875 -0.3125 2.1875 0 0 Z " fill="#7FACE2" transform="translate(0,46)"/>
<path d="M0 0 C0.83402344 0.2165625 1.66804687 0.433125 2.52734375 0.65625 C14.67389948 3.66158338 22.89130882 3.14414238 35 0 C35.35458428 3.0730638 35.47120923 5.93449278 35 9 C30.27988738 14.25955406 22.75475558 14.62689497 16 15 C10.81235987 14.68756998 6.48132641 13.7261404 1.8125 11.4375 C-0.8961361 7.79485145 -0.42192449 4.38801472 0 0 Z " fill="#82AEE3" transform="translate(176,63)"/>
<path d="M0 0 C3.89428305 0.01860326 4.55443387 0.21610252 7.75 2.8125 C8.41 3.658125 9.07 4.50375 9.75 5.375 C10.08 5.705 10.41 6.035 10.75 6.375 C11.13270052 11.3501068 10.92088582 14.43872795 7.75 18.375 C5.0517982 20.48980682 3.19278066 21.29963308 -0.1875 21.875 C-4.53060236 21.16592206 -6.14709345 19.47790655 -9.25 16.375 C-10.46260877 12.73717368 -10.64544552 10.19764001 -10.25 6.375 C-7.8125 3.5 -7.8125 3.5 -5.25 1.375 C-3.69049449 -0.18450551 -2.16122869 0.09303302 0 0 Z " fill="#FBFDFB" transform="translate(112.25,175.625)"/>
<path d="M0 0 C1.65 0.33 3.3 0.66 5 1 C5 9.91 5 18.82 5 28 C9.29 28 13.58 28 18 28 C18.33 29.65 18.66 31.3 19 33 C16.37276176 35.62723824 14.45788327 35.26115971 10.87890625 35.2734375 C10.09386719 35.26570313 9.30882812 35.25796875 8.5 35.25 C7.32244141 35.26160156 7.32244141 35.26160156 6.12109375 35.2734375 C0.25330787 35.25330787 0.25330787 35.25330787 -2 33 C-2.25878906 29.95898438 -2.25878906 29.95898438 -2.265625 26.09375 C-2.26753845 25.41324585 -2.2694519 24.7327417 -2.27142334 24.03161621 C-2.27278463 22.59252554 -2.26909205 21.15342256 -2.26074219 19.71435547 C-2.25004128 17.50850913 -2.26063872 15.30347719 -2.2734375 13.09765625 C-2.27211589 11.70051903 -2.26955348 10.30338232 -2.265625 8.90625 C-2.26336914 7.63072266 -2.26111328 6.35519531 -2.25878906 5.04101562 C-2 2 -2 2 0 0 Z " fill="#EAF9FE" transform="translate(132,88)"/>
<path d="M0 0 C6.27 0 12.54 0 19 0 C19.33 1.65 19.66 3.3 20 5 C18 7 18 7 15.375 7.125 C14.59125 7.08375 13.8075 7.0425 13 7 C13.01047363 7.77714355 13.02094727 8.55428711 13.03173828 9.35498047 C13.07320282 12.861621 13.09929578 16.36821006 13.125 19.875 C13.14175781 21.09832031 13.15851563 22.32164063 13.17578125 23.58203125 C13.18222656 24.74863281 13.18867187 25.91523437 13.1953125 27.1171875 C13.20578613 28.19597168 13.21625977 29.27475586 13.22705078 30.38623047 C13 33 13 33 11 35 C7.46428571 34.46428571 7.46428571 34.46428571 6 33 C5.91251793 31.07332493 5.89302666 29.14348139 5.90234375 27.21484375 C5.90556641 26.04501953 5.90878906 24.87519531 5.91210938 23.66992188 C5.92048828 22.43822266 5.92886719 21.20652344 5.9375 19.9375 C5.94201172 18.70193359 5.94652344 17.46636719 5.95117188 16.19335938 C5.96300392 13.12885883 5.97948827 10.06445279 6 7 C5.21625 7.04125 4.4325 7.0825 3.625 7.125 C1 7 1 7 -1 5 C-0.67 3.35 -0.34 1.7 0 0 Z " fill="#EAF9FE" transform="translate(103,88)"/>
<path d="M0 0 C9.9 0 19.8 0 30 0 C30 6.93 30 13.86 30 21 C22.82726752 16.53003628 15.79902398 11.87974485 8.8125 7.125 C7.95035889 6.54145752 7.08821777 5.95791504 6.19995117 5.35668945 C5.3979126 4.80843506 4.59587402 4.26018066 3.76953125 3.6953125 C3.04354736 3.20047363 2.31756348 2.70563477 1.56958008 2.19580078 C1.05161865 1.80118652 0.53365723 1.40657227 0 1 C0 0.67 0 0.34 0 0 Z " fill="#FEFDFD" transform="translate(195,0)"/>
<path d="M0 0 C0.33 0 0.66 0 1 0 C1 2.97 1 5.94 1 9 C-9.92313702 13.25817206 -19.54605314 14.34934908 -31 11 C-31.99 10.34 -32.98 9.68 -34 9 C-34.40843923 6.28796348 -34.13336867 3.7562858 -34 1 C-32.33984375 1.74869792 -30.6796875 2.49739583 -29.01953125 3.24609375 C-20.79253721 6.31729268 -11.92590673 5.76913116 -3.77734375 2.8515625 C-1.80713497 2.02857513 -1.80713497 2.02857513 0 0 Z " fill="#5390D8" transform="translate(210,54)"/>
<path d="M0 0 C1.58206057 0.00667536 3.16410534 0.0186375 4.74609375 0.03515625 C5.55240234 0.03966797 6.35871094 0.04417969 7.18945312 0.04882812 C9.18753131 0.06065107 11.18557158 0.07858711 13.18359375 0.09765625 C13.56578142 1.75380282 13.89754477 3.42222649 14.18359375 5.09765625 C13.18359375 6.09765625 13.18359375 6.09765625 9.3671875 6.1953125 C7.78512693 6.18863714 6.20308216 6.176675 4.62109375 6.16015625 C3.81478516 6.15564453 3.00847656 6.15113281 2.17773438 6.14648438 C0.17965619 6.13466143 -1.81838408 6.11672539 -3.81640625 6.09765625 C-4.19859392 4.44150968 -4.53035727 2.77308601 -4.81640625 1.09765625 C-3.81640625 0.09765625 -3.81640625 0.09765625 0 0 Z " fill="#FD5426" transform="translate(188.81640625,17.90234375)"/>
</svg>
