<?xml version="1.0" encoding="UTF-8"?>
<svg version="1.1" xmlns="http://www.w3.org/2000/svg" width="363" height="139">
<path d="M0 0 C119.79 0 239.58 0 363 0 C363 45.87 363 91.74 363 139 C243.21 139 123.42 139 0 139 C0 93.13 0 47.26 0 0 Z " fill="#FBFDFE" transform="translate(0,0)"/>
<path d="M0 0 C0.99 0 1.98 0 3 0 C3.84124316 2.24732102 4.67314832 4.49738785 5.5 6.75 C5.73847656 7.38421875 5.97695312 8.0184375 6.22265625 8.671875 C7.44801758 12.03286607 8 14.36871587 8 18 C15.26 18 22.52 18 30 18 C30.66 15.03 31.32 12.06 32 9 C33.0703125 6.15234375 33.0703125 6.15234375 34.125 3.9375 C34.47820312 3.18339844 34.83140625 2.42929687 35.1953125 1.65234375 C35.46085937 1.10707031 35.72640625 0.56179687 36 0 C39 1 39 1 40.16674805 3.02197266 C41.35325485 5.88493288 42.53556018 8.74790628 43.6875 11.625 C44.10322266 12.61113281 44.51894531 13.59726562 44.94726562 14.61328125 C47.61331604 21.17115239 49.30790981 26.07627056 47 33 C42.66219761 39.50670358 36.06996791 43.77618327 29.8125 48.3125 C29.21848389 48.74530273 28.62446777 49.17810547 28.01245117 49.62402344 C24.78787825 51.91677202 21.83203076 53.95999165 18 55 C15.78344727 54.02124023 15.78344727 54.02124023 13.56640625 52.30859375 C12.75236328 51.69306641 11.93832031 51.07753906 11.09960938 50.44335938 C10.26236328 49.78142578 9.42511719 49.11949219 8.5625 48.4375 C7.72912109 47.80263672 6.89574219 47.16777344 6.03710938 46.51367188 C3.67047526 44.70081143 1.33236914 42.85663038 -1 41 C-1.92256592 40.28674561 -1.92256592 40.28674561 -2.86376953 39.55908203 C-6.47780372 36.69746892 -8.62822534 34.43870033 -9.33374023 29.81079102 C-9.44379119 22.83010765 -7.70836929 17.3463834 -5.0625 10.9375 C-4.68931641 9.98939453 -4.31613281 9.04128906 -3.93164062 8.06445312 C-1.20103237 1.20103237 -1.20103237 1.20103237 0 0 Z " fill="#DB5F40" transform="translate(64,42)"/>
<path d="M0 0 C2.97 0 5.94 0 9 0 C9.33 4.62 9.66 9.24 10 14 C11.65 13.01 13.3 12.02 15 11 C19.20293133 10.46508147 21.39808674 10.69314226 25.1875 12.625 C29.40406902 16.18565829 31.70894809 18.55278802 32.3828125 24.21875 C32.60303226 31.08960644 32.61586232 37.53837409 28 43 C23.38345679 46.35748597 19.5089987 46.53312891 14 46 C11.5 44.5 11.5 44.5 10 43 C9.67 43.99 9.34 44.98 9 46 C6.03 46 3.06 46 0 46 C0 30.82 0 15.64 0 0 Z " fill="#3D4246" transform="translate(276,48)"/>
<path d="M0 0 C4.82753129 1.64106628 7.84533726 4.31346155 10.5 8.625 C12 12 12 12 12 15 C6.81431524 15.52735777 6.81431524 15.52735777 4 15 C1.83737086 13.21301364 0.6237704 11.34013969 -1 9 C-4.23081745 7.38459127 -7.50759098 7.4103725 -11 8 C-14.52787301 9.95657197 -16.70285021 12.10855063 -18 16 C-18.9609448 25.20950611 -18.9609448 25.20950611 -16.25 33.75 C-12.90177952 37.09822048 -11.30826659 37.88106667 -6.5625 38.3125 C-2.65445166 37.96968874 -0.96095713 37.54971309 2 35 C3.27086781 32.70325094 4.10832323 30.48730887 5 28 C1.37 28 -2.26 28 -6 28 C-6 26.02 -6 24.04 -6 22 C-0.06 22 5.88 22 12 22 C12.71639801 34.60860497 12.71639801 34.60860497 8.4296875 40.4453125 C4.76792125 44.42723318 0.70863132 45.70558355 -4.515625 46.2734375 C-11.41484724 46.52969433 -15.7208472 45.52856235 -21 41 C-25.96524252 36.03475748 -28.12144084 30.06740302 -28.4375 23.125 C-28.18650431 16.58907214 -26.51184799 10.73026955 -22.0234375 5.8515625 C-14.94803766 -0.45197554 -9.4749371 -0.90385913 0 0 Z " fill="#353A3E" transform="translate(153,48)"/>
<path d="M0 0 C2 2 2 2 2.3125 5.25 C1.82943731 11.04675226 -0.08588618 14.37635821 -4.3125 18.25 C-8.14692688 21.43585282 -12.15264438 24.38745374 -16.1875 27.3125 C-16.78151611 27.74530273 -17.37553223 28.17810547 -17.98754883 28.62402344 C-21.21212175 30.91677202 -24.16796924 32.95999165 -28 34 C-30.21655273 33.02124023 -30.21655273 33.02124023 -32.43359375 31.30859375 C-33.24763672 30.69306641 -34.06167969 30.07753906 -34.90039062 29.44335938 C-35.73763672 28.78142578 -36.57488281 28.11949219 -37.4375 27.4375 C-38.27087891 26.80263672 -39.10425781 26.16777344 -39.96289062 25.51367188 C-42.32952474 23.70081143 -44.66763086 21.85663038 -47 20 C-47.92256592 19.28674561 -47.92256592 19.28674561 -48.86376953 18.55908203 C-51.69681188 16.31586276 -53.90071785 14.50141722 -55 11 C-55.1953125 8.421875 -55.1953125 8.421875 -55.125 5.75 C-55.09792969 4.41195312 -55.09792969 4.41195312 -55.0703125 3.046875 C-55.04710937 2.37140625 -55.02390625 1.6959375 -55 1 C-44.36314427 2.22852574 -35.96439271 10.34860912 -28 17 C-22.15354146 15.16871629 -17.79263536 11.16786439 -13.05859375 7.43164062 C-8.85216289 4.18267355 -4.98357887 1.86721558 0 0 Z " fill="#E77C46" transform="translate(110,63)"/>
<path d="M0 0 C2.70680921 1.80453947 3.97862496 2.97309629 5.625 5.75 C5.96557617 8.68261719 5.96557617 8.68261719 5.91796875 12.046875 C5.90830078 13.25214844 5.89863281 14.45742187 5.88867188 15.69921875 C5.86353516 16.95347656 5.83839844 18.20773438 5.8125 19.5 C5.79219727 21.40458984 5.79219727 21.40458984 5.77148438 23.34765625 C5.7361324 26.48219844 5.68678248 29.61588545 5.625 32.75 C3.315 32.75 1.005 32.75 -1.375 32.75 C-1.705 31.76 -2.035 30.77 -2.375 29.75 C-3.014375 30.41 -3.65375 31.07 -4.3125 31.75 C-8.41903493 34.43181873 -11.59440843 34.47012541 -16.375 33.75 C-19.33941013 32.48854888 -20.81244933 31.52685568 -22.6875 28.9375 C-24.08656784 24.48592051 -23.87754918 21.77520033 -21.8125 17.5625 C-17.5355995 12.76985562 -9.42512993 12.6175658 -3.375 11.75 C-3.375 10.1 -3.375 8.45 -3.375 6.75 C-6.68684707 5.97868094 -6.68684707 5.97868094 -10.375 5.75 C-11.72835895 6.72272675 -13.06162604 7.7239266 -14.375 8.75 C-18.125 8.9375 -18.125 8.9375 -21.375 8.75 C-21.08040991 5.21491897 -20.62618587 3.98796556 -18 1.5 C-12.40567899 -2.22954734 -6.19775709 -2.29546559 0 0 Z " fill="#353A3E" transform="translate(264.375,60.25)"/>
<path d="M0 0 C2.64 0 5.28 0 8 0 C8 12.54 8 25.08 8 38 C14.6 38 21.2 38 28 38 C28 39.98 28 41.96 28 44 C18.76 44 9.52 44 0 44 C0 29.48 0 14.96 0 0 Z " fill="#30353A" transform="translate(209,49)"/>
<path d="M0 0 C2.64 0 5.28 0 8 0 C8 2.64 8 5.28 8 8 C10.31 8 12.62 8 15 8 C15 9.98 15 11.96 15 14 C12.69 14 10.38 14 8 14 C8.33 20.93 8.66 27.86 9 35 C10.98 35 12.96 35 15 35 C15 37.31 15 39.62 15 42 C7.03411131 42.62477558 7.03411131 42.62477558 3 40.1875 C0.02857525 36.93750418 -0.12329498 34.34367175 -0.09765625 30.11328125 C-0.09443359 29.17548828 -0.09121094 28.23769531 -0.08789062 27.27148438 C-0.07951172 26.29501953 -0.07113281 25.31855469 -0.0625 24.3125 C-0.05798828 23.32443359 -0.05347656 22.33636719 -0.04882812 21.31835938 C-0.03704303 18.87884526 -0.02059011 16.43945311 0 14 C-1.32 14 -2.64 14 -4 14 C-4 12.02 -4 10.04 -4 8 C-2.68 8 -1.36 8 0 8 C0 5.36 0 2.72 0 0 Z " fill="#363B3F" transform="translate(188,52)"/>
<path d="M0 0 C2.4375 1.8125 2.4375 1.8125 4 5 C4.7475365 10.14027672 4.72810576 14.45277526 2.5 19.1875 C-1.26393529 21.91635309 -3.40889285 21.65587245 -8 21 C-11.1546344 18.0488904 -11.92807008 14.9530714 -12.25 10.6875 C-11.97893713 6.68932267 -11.09575015 4.38544255 -9 1 C-5.87139505 -0.56430248 -3.44397075 -0.35627284 0 0 Z " fill="#F7F8F9" transform="translate(296,66)"/>
<path d="M0 0 C2.64 0 5.28 0 8 0 C8 10.89 8 21.78 8 33 C5.36 33 2.72 33 0 33 C0 22.11 0 11.22 0 0 Z " fill="#30363A" transform="translate(171,60)"/>
<path d="M0 0 C4.1292824 1.59540456 7.3329732 4.28987527 10.75 7.0625 C7.72039803 10.32514827 4.69751519 12.9679001 0.75 15.0625 C-3.83056612 14.24034711 -7.57932313 10.79751414 -11.25 8.0625 C-3.5 0.09722222 -3.5 0.09722222 0 0 Z " fill="#EB9E4B" transform="translate(83.25,81.9375)"/>
<path d="M0 0 C0.31785906 3.49644963 0.39644605 5.397402 -1.5625 8.375 C-4.85066094 10.56710729 -7.12575435 10.35872645 -11 10 C-11.66 9.67 -12.32 9.34 -13 9 C-13.1875 6.125 -13.1875 6.125 -13 3 C-8.72352613 0.14901742 -5.0682068 -0.14480591 0 0 Z " fill="#F3F5F6" transform="translate(263,78)"/>
<path d="M0 0 C3 0.125 3 0.125 4 1.125 C4.125 4.125 4.125 4.125 4 7.125 C3 8.125 3 8.125 0.0625 8.3125 C-3 8.125 -3 8.125 -5 6.125 C-4.27477017 0.17811542 -4.27477017 0.17811542 0 0 Z " fill="#3B4044" transform="translate(175,45.875)"/>
</svg>
