<?xml version="1.0" encoding="UTF-8"?>
<svg version="1.1" xmlns="http://www.w3.org/2000/svg" width="437" height="115">
<path d="M0 0 C144.21 0 288.42 0 437 0 C437 37.95 437 75.9 437 115 C292.79 115 148.58 115 0 115 C0 77.05 0 39.1 0 0 Z " fill="#FCFCFC" transform="translate(0,0)"/>
<path d="M0 0 C1.43958535 0.00028246 2.87917084 0.000123 4.3187561 -0.0004425 C8.2066009 -0.0007282 12.09441454 0.0051316 15.98225212 0.01213145 C20.05282303 0.01840302 24.12339473 0.01897179 28.19396973 0.02015686 C35.89314145 0.02325899 43.59229888 0.03145725 51.29146433 0.04150635 C61.70173843 0.0547977 72.11201646 0.06017643 82.52229691 0.06600857 C98.91135967 0.07539793 115.3003923 0.09532431 131.68945312 0.11352539 C131.68945312 38.06352539 131.68945312 76.01352539 131.68945312 115.11352539 C94.43601516 115.23443449 94.43601516 115.23443449 78.80859375 115.26000977 C68.02412632 115.27780111 57.23972928 115.29870098 46.45532227 115.33984375 C38.60061191 115.36979531 30.74595873 115.38911206 22.89119285 115.39579087 C18.73419389 115.3996934 14.57735848 115.40883125 10.42041206 115.43071556 C6.50276042 115.45117179 2.58533876 115.45734086 -1.33236122 115.45284843 C-2.76538215 115.45366957 -4.19841127 115.45958068 -5.6313858 115.47114182 C-13.42205894 115.53088048 -20.12330176 115.26447616 -27.31054688 112.11352539 C-28.01923636 111.82384479 -28.72792585 111.53416418 -29.45809078 111.23570538 C-40.01365306 106.77261218 -47.20647484 96.41438018 -51.56445312 86.16430664 C-58.35256489 67.00229373 -58.43739518 45.8310329 -51.02539062 26.81665039 C-45.36283807 15.64927654 -36.38281561 6.14743797 -24.59570312 1.69165039 C-16.52994271 -0.34891806 -8.25625771 -0.02276414 0 0 Z " fill="#25304C" transform="translate(305.310546875,-0.113525390625)"/>
<path d="M0 0 C62.59649123 0 62.59649123 0 73.5625 8.5625 C80.71717098 16.80960461 82.77519749 25.70978098 82.34765625 36.453125 C81.29410421 47.20172332 77.07907553 53.78726459 69.625 61.4375 C67.04578179 62.97274893 65.23831649 63.49364765 62.3359375 64.09765625 C61.11849854 64.35494507 61.11849854 64.35494507 59.87646484 64.61743164 C58.94761475 64.80680298 58.94761475 64.80680298 58 65 C58.54527344 65.99515625 59.09054688 66.9903125 59.65234375 68.015625 C65.25586591 78.35750254 70.24795005 88.88625912 74.97119141 99.65625 C76.63369117 103.44362488 78.31838142 107.22108185 80 111 C73.73 111 67.46 111 61 111 C60.29875 109.5253125 59.5975 108.050625 58.875 106.53125 C53.36348126 94.96163977 47.78330342 83.43615638 42 72 C41.34 70.68 40.68 69.36 40 68 C32.08 67.67 24.16 67.34 16 67 C16 81.52 16 96.04 16 111 C10.72 111 5.44 111 0 111 C0 74.37 0 37.74 0 0 Z " fill="#25304C" transform="translate(147,2)"/>
<path d="M0 0 C0 37.95 0 75.9 0 115 C-61.26515487 115 -61.26515487 115 -74.6875 101.625 C-75.8050655 100.42904815 -76.91466592 99.22527687 -78 98 C-76.52278578 94.54798361 -74.56205999 92.35038064 -71.875 89.75 C-71.15054687 89.04359375 -70.42609375 88.3371875 -69.6796875 87.609375 C-68.84824219 86.81273438 -68.84824219 86.81273438 -68 86 C-64.33962026 87.69252072 -61.49168009 89.9175485 -58.390625 92.46484375 C-52.0346009 96.54640824 -45.95316823 97.50329844 -38.5 97.4375 C-37.69691406 97.45748047 -36.89382813 97.47746094 -36.06640625 97.49804688 C-29.31661853 97.49257703 -23.97792234 95.83639732 -19.02734375 91.12109375 C-16.88336655 86.69455527 -17.43005667 81.77573205 -18 77 C-20.8649674 71.2700652 -26.92919943 69.10013619 -32.72314453 67.02441406 C-36.76811275 65.70335976 -40.82611276 64.42898491 -44.89257812 63.17578125 C-56.10083196 59.58971151 -66.34748603 55.3861929 -72.24609375 44.75390625 C-76.02727276 36.57661599 -76.44254536 28.18124954 -73.375 19.6875 C-69.73733758 11.75078199 -64.65229741 7.05121627 -57 3 C-38.77611206 -2.46716638 -19.02629759 0 0 0 Z " fill="#26314C" transform="translate(437,0)"/>
<path d="M0 0 C1.01716473 0.00085602 2.03432945 0.00171204 3.08231735 0.00259399 C15.74239567 0.01403531 28.40244858 0.03418492 41.0625 0.0625 C41.0625 0.3925 41.0625 0.7225 41.0625 1.0625 C40.04542969 1.19205078 40.04542969 1.19205078 39.0078125 1.32421875 C27.72353681 3.02780054 19.32301893 7.115667 12.0625 16.0625 C0.72909265 32.2273826 -2.10916375 51.99412968 0.88696289 71.26928711 C3.10709072 83.76441137 7.41601183 93.69547115 16.0625 103.0625 C16.58328125 103.64902344 17.1040625 104.23554687 17.640625 104.83984375 C22.92582392 110.08500328 30.12018483 111.88640676 37.0625 114.0625 C37.0625 114.3925 37.0625 114.7225 37.0625 115.0625 C-4.1875 115.0625 -45.4375 115.0625 -87.9375 115.0625 C-87.6075 99.8825 -87.2775 84.7025 -86.9375 69.0625 C-79.0175 69.0625 -71.0975 69.0625 -62.9375 69.0625 C-61.679375 71.228125 -60.42125 73.39375 -59.125 75.625 C-58.73465576 76.29217041 -58.34431152 76.95934082 -57.94213867 77.64672852 C-55.98187504 81.05019208 -54.28472297 84.44955241 -52.78393555 88.0871582 C-50.50728145 93.40022665 -47.87244977 98.56609429 -45.34570312 103.76367188 C-44.90806641 104.67310547 -44.47042969 105.58253906 -44.01953125 106.51953125 C-43.41975464 107.7566687 -43.41975464 107.7566687 -42.80786133 109.01879883 C-41.9375 111.0625 -41.9375 111.0625 -41.9375 113.0625 C-35.9975 112.7325 -30.0575 112.4025 -23.9375 112.0625 C-24.78513916 110.284198 -24.78513916 110.284198 -25.64990234 108.4699707 C-27.74993426 104.06316139 -29.84792757 99.65538411 -31.9453125 95.24731445 C-32.85263556 93.34112592 -33.76050816 91.43519886 -34.66894531 89.52954102 C-35.97606324 86.78731057 -37.28118944 84.04413991 -38.5859375 81.30078125 C-38.99121674 80.45163651 -39.39649597 79.60249176 -39.8140564 78.72761536 C-41.64210807 74.8793722 -43.42754267 71.05006337 -44.9375 67.0625 C-43.95910156 66.71638672 -43.95910156 66.71638672 -42.9609375 66.36328125 C-34.46262465 63.19208191 -29.39372041 59.56557076 -25.015625 51.5390625 C-20.72168474 41.6754461 -20.14031976 30.65607169 -24 20.5625 C-27.65339673 13.04376916 -31.65047755 8.70601928 -39.41796875 5.421875 C-51.22525025 1.34319083 -63.97120104 2.27602651 -76.3125 2.25 C-78.8984583 2.22682426 -81.4843979 2.20145262 -84.0703125 2.17382812 C-90.35938297 2.11137743 -96.64814406 2.07612166 -102.9375 2.0625 C-102.9375 1.7325 -102.9375 1.4025 -102.9375 1.0625 C-68.62190663 0.19625877 -34.32500276 -0.02909207 0 0 Z " fill="#FCFCFC" transform="translate(249.9375,-0.0625)"/>
<path d="M0 0 C29.37 0 58.74 0 89 0 C86.02270883 1.48864559 83.2919057 2.63534725 80.1875 3.75 C71.77136861 7.14120588 67.74733719 11.53471353 63.9453125 19.73046875 C60.66964614 27.59477517 61.0474586 35.45680931 64.0625 43.375 C68.54283046 52.94718236 75.54811232 56.10147141 85 60 C90.05457101 61.77098344 95.1737503 63.33274382 100.30273438 64.87304688 C107.94085914 67.29203073 114.44442387 70.1666358 119 77 C119.6353232 81.63451558 120.01998139 86.6504 118.125 91.015625 C114.84127328 95.29311112 110.0588312 97.57678483 104.8137207 98.30249023 C102.42968295 98.43826585 100.07517189 98.46773575 97.6875 98.4375 C96.84662842 98.42920166 96.00575684 98.42090332 95.1394043 98.41235352 C84.31887717 98.11803853 77.6372306 94.5945645 70 87 C66.78475695 88.40844718 64.67816132 90.10344786 62.25 92.625 C61.63640625 93.25664063 61.0228125 93.88828125 60.390625 94.5390625 C59.93171875 95.02117187 59.4728125 95.50328125 59 96 C61.92075597 102.7265895 68.32510184 107.14725822 74.8359375 110.15625 C78.8102528 111.70580254 82.8850221 112.88693221 87 114 C87 114.33 87 114.66 87 115 C58.29 115 29.58 115 0 115 C0 114.67 0 114.34 0 114 C0.83402344 113.78085938 1.66804688 113.56171875 2.52734375 113.3359375 C15.22035603 109.75921239 24.4433451 104.04434255 31.46875 92.609375 C41.03853215 73.58651535 41.3255292 51.93964396 35 32 C34.69964844 31.04222656 34.39929688 30.08445312 34.08984375 29.09765625 C30.78051308 19.80001295 24.21627672 11.50133311 16 6 C10.82294641 3.60442949 5.60302075 2.02974435 0 1 C0 0.67 0 0.34 0 0 Z " fill="#FCFCFC" transform="translate(301,0)"/>
<path d="M0 0 C8.32143747 6.25240492 12.34341932 14.45483062 14.15234375 24.6171875 C14.45507033 28.53740824 14.48636459 32.4365593 14.46484375 36.3671875 C14.45638428 37.96735718 14.45638428 37.96735718 14.44775391 39.59985352 C14.2558238 52.02685265 12.35215588 61.83202479 3.7109375 71.17578125 C-2.87944061 77.22743635 -10.07220947 78.21119629 -18.66796875 77.953125 C-26.80233974 77.09371971 -31.94688341 73.48975735 -37.12109375 67.25390625 C-45.32033972 54.73243333 -46.04915421 35.49046093 -43.38330078 21.11279297 C-40.69280214 10.78631872 -35.75378332 3.47425008 -26.78515625 -2.3828125 C-18.22083407 -5.3685395 -7.76482054 -4.57362142 0 0 Z " fill="#FDFDFD" transform="translate(309.84765625,20.3828125)"/>
<path d="M0 0 C10.23 0 20.46 0 31 0 C31 25.08 31 50.16 31 76 C30.67 76 30.34 76 30 76 C29.82984375 75.41992188 29.6596875 74.83984375 29.484375 74.2421875 C29.24203125 73.46101563 28.9996875 72.67984375 28.75 71.875 C28.40195312 70.72644531 28.40195312 70.72644531 28.046875 69.5546875 C25.52738573 63.40638159 22.32400429 60.14024027 16.625 56.8125 C15.52414062 56.15894531 14.42328125 55.50539062 13.2890625 54.83203125 C8.33891952 52.07476633 3.93796206 49.80502226 -1.625 48.625 C-10.62710066 46.47524462 -19.3467865 43.6532135 -26 37 C-27.86458199 33.27083603 -27.56048286 29.06038696 -27 25 C-25.03262224 21.12820057 -22.05701526 18.50611603 -18 17 C-4.78862075 15.81894115 5.03601189 17.39238894 15.6015625 25.828125 C16.06304687 26.21484375 16.52453125 26.6015625 17 27 C17.25523437 26.41476563 17.51046875 25.82953125 17.7734375 25.2265625 C19.11537414 22.79056287 20.5987384 21.2678452 22.625 19.375 C24.50575752 17.66170213 24.50575752 17.66170213 26 16 C26.23535589 13.92254536 26.23535589 13.92254536 24.671875 12.66796875 C17.22770751 6.93353892 8.86759484 3.89446716 0 1 C0 0.67 0 0.34 0 0 Z " fill="#FBFBFC" transform="translate(406,0)"/>
<path d="M0 0 C5.40966325 -0.13831525 10.81311679 -0.25755858 16.22314453 -0.32958984 C18.06027082 -0.35963253 19.89725522 -0.40048019 21.73388672 -0.45263672 C24.38544824 -0.52601145 27.03510316 -0.55957987 29.6875 -0.5859375 C30.49928711 -0.61690521 31.31107422 -0.64787292 32.14746094 -0.67977905 C38.60129605 -0.6835278 42.38233151 1.56375982 47 6 C50.30910102 10.4466045 50.57915574 14.845458 50.41015625 20.24609375 C49.7615077 24.60130542 48.13468967 27.9066469 45 31 C39.47094762 34.78152117 35.62553542 35.56256417 29.00390625 35.390625 C28.17036118 35.38496521 27.3368161 35.37930542 26.47801208 35.37347412 C23.83890168 35.35124195 21.2011938 35.30107305 18.5625 35.25 C16.76369161 35.22991787 14.96486174 35.21167011 13.16601562 35.1953125 C8.77638045 35.15483638 4.38974332 35.07652821 0 35 C0 23.45 0 11.9 0 0 Z " fill="#FDFDFD" transform="translate(163,18)"/>
<path d="M0 0 C4.36350222 2.22291622 7.09544338 4.45022584 9 9 C9.54223844 13.26044487 9.30065535 15.42096006 7.3125 19.25 C3.7943527 23.43374273 1.56677417 24.77256504 -3.875 25.5625 C-8.25412802 25.42123781 -10.55166064 23.43191913 -13.65234375 20.5078125 C-16.43993548 17.38894176 -16.44534185 14.43053534 -16.42578125 10.39453125 C-15.69260603 6.27126142 -13.08526198 3.68561665 -10 1 C-6.78314421 -0.60842789 -3.4888991 -0.46778535 0 0 Z " fill="#27324E" transform="translate(59,45)"/>
<path d="M0 0 C3.88363855 2.1183483 7.30709526 4.65582226 8.6015625 9.03515625 C8.79596938 13.62139132 7.54622604 17.26553515 5 21 C1.77010591 23.78945399 -0.2663318 24.89519026 -4.5 25.5 C-8.7336682 24.89519026 -10.77010591 23.78945399 -14 21 C-16.64201025 16.94891762 -17.70236884 13.8162435 -17 9 C-12.94415611 1.61257005 -8.54239481 -1.92308399 0 0 Z " fill="#26314D" transform="translate(103,45)"/>
<path d="M0 0 C3.43761572 2.12108204 5.77560839 4.1042085 7 8 C7.45778685 13.03565533 7.0454675 15.93937667 4 20 C1.06904376 23.41944895 -1.29176594 23.93033763 -5.8125 24.375 C-9.06504073 24.33906032 -10.83212381 23.78680009 -13.375 21.75 C-16.82177446 18.13909342 -17.82522878 16.57294101 -18.375 11.625 C-17.8302996 6.3595628 -15.72016382 3.52357367 -11.8125 0.0625 C-7.69271475 -1.49386332 -4.2187977 -1.13317978 0 0 Z " fill="#26314D" transform="translate(61,89)"/>
<path d="M0 0 C3.97108701 2.36575396 5.85325363 4.51726419 7 9 C7.5257197 12.54860798 7.71635067 14.89251308 5.7265625 17.96875 C0.88051556 23.73672782 0.88051556 23.73672782 -2.953125 24.2734375 C-7.11214963 24.45733995 -10.07914558 24.45772237 -13.4375 21.8125 C-15.93500668 19.07133413 -17.2303548 17.59167758 -18 14 C-17.74448444 9.23037626 -16.94953039 5.79225336 -14 2 C-9.65022088 -1.8380404 -5.33325394 -1.42284633 0 0 Z " fill="#26314D" transform="translate(104,89)"/>
<path d="M0 0 C3.88363855 2.1183483 7.30709526 4.65582226 8.6015625 9.03515625 C8.83262196 14.48605888 6.95451472 18.81996435 3.375 22.8125 C-0.30401526 24.65200763 -3.90476941 25.10274772 -8 25 C-12.30291162 23.47007587 -14.24239173 20.76656749 -16.26953125 16.828125 C-17.40660021 13.98241231 -17.51380569 12.01860846 -17 9 C-12.94415611 1.61257005 -8.54239481 -1.92308399 0 0 Z " fill="#27324E" transform="translate(103,2)"/>
<path d="M0 0 C4.5562994 1.86394066 6.87547226 4.58751931 9 9 C9.43667157 13.85476038 8.72294546 17.05615454 5.75 20.9375 C0.16968326 25.12273756 0.16968326 25.12273756 -4.140625 24.87890625 C-8.41188103 24.1929595 -10.69220205 23.25754522 -14.0625 20.4375 C-16.51095674 16.09346385 -17.22452665 12.87277155 -16 8 C-11.90950239 1.32341271 -7.8556378 -0.8173496 0 0 Z " fill="#26324D" transform="translate(59,2)"/>
<path d="M0 0 C3.75212276 2.01502889 5.63644095 3.45466142 8 7 C8.73545723 11.96861222 8.50048991 15.96194685 6.3125 20.5 C2.88744478 24.2027624 0.49328073 24.80994609 -4.4375 25.4375 C-9.24937303 24.84656822 -10.63411477 23.44416163 -14 20 C-16.54641337 16.52761813 -16.43529792 13.20787993 -16 9 C-12.19589901 1.93524102 -8.27736489 -1.46445686 0 0 Z " fill="#242F4B" transform="translate(16,45)"/>
<path d="M0 0 C2.89705753 1.89195594 4.542196 3.86517335 6 7 C6.75422592 10.82578367 6.80174495 14.1799211 6 18 C3.47429367 21.41311667 2.00086696 22.66637768 -2 24 C-6.84510801 24.63512652 -9.96415607 24.79341237 -13.9375 21.75 C-17.53622283 16.9517029 -18.63748925 14.16239609 -18 8 C-13.93585827 0.17276409 -8.4846346 -2.85798218 0 0 Z " fill="#24304C" transform="translate(18,89)"/>
<path d="M0 0 C3.52466513 0.54734561 5.64189881 2.0311299 8.2890625 4.35546875 C11.01056181 8.75679006 11.10362666 13.32960791 10.2890625 18.35546875 C7.85449974 21.51382044 5.58934007 23.1552837 2.2890625 25.35546875 C-1.87730787 25.82713332 -4.18833933 25.61676783 -7.9609375 23.73046875 C-11.84790762 20.37354001 -13.40908654 17.42530394 -14.1484375 12.35546875 C-12.95060723 4.14177545 -7.82807784 -0.26773556 0 0 Z " fill="#25304C" transform="translate(13.7109375,1.64453125)"/>
<path d="M0 0 C0.33 0 0.66 0 1 0 C1 9.24 1 18.48 1 28 C-8.57 28 -18.14 28 -28 28 C-25.64121025 25.64121025 -23.83334239 25.12246584 -20.6875 24.0625 C-16.77618911 22.74450029 -13.52610785 21.13023039 -10 19 C-9.34 19 -8.68 19 -8 19 C-7.72285156 18.44183594 -7.44570313 17.88367188 -7.16015625 17.30859375 C-6.36785548 15.73199525 -5.56254477 14.16188483 -4.74609375 12.59765625 C-4.09833984 11.34275391 -4.09833984 11.34275391 -3.4375 10.0625 C-3.00308594 9.22847656 -2.56867188 8.39445312 -2.12109375 7.53515625 C-1.00424297 5.00959474 -0.43288595 2.71891287 0 0 Z " fill="#F5F6F7" transform="translate(436,87)"/>
<path d="M0 0 C5.61 0.33 11.22 0.66 17 1 C17.33 1.66 17.66 2.32 18 3 C17.26394531 2.93039062 16.52789063 2.86078125 15.76953125 2.7890625 C10.2063287 2.28117015 10.2063287 2.28117015 5.2265625 4.265625 C3.73548428 6.06122103 3.73548428 6.06122103 2 9 C1.34 9.66 0.68 10.32 0 11 C0 7.37 0 3.74 0 0 Z " fill="#EBECEE" transform="translate(0,0)"/>
<path d="M0 0 C4 4.75 4 4.75 4 7 C7.14930893 8.04976964 9.38814456 8.10131595 12.6875 8.0625 C13.68136719 8.05347656 14.67523438 8.04445313 15.69921875 8.03515625 C16.45847656 8.02355469 17.21773437 8.01195313 18 8 C17.67 8.66 17.34 9.32 17 10 C11.29738833 11.01832351 5.78264443 11.09035382 0 11 C0 7.37 0 3.74 0 0 Z " fill="#ECEDEF" transform="translate(0,104)"/>
</svg>
